# xmcd
#
# Track frame offsets: 
#        150
#        20192
#        47482
#        62670
#        85713
#        98788
#        127101
#        148251
#        162651
#        186135
#        207510
#
# Disc length: 3100 seconds
#
# Revision: 0
# Processed by: cddbd v1.5.2PL0 Copyright (c) Steve Scherf et al.
# Submitted via: ExactAudioCopyFreeDBPlugin 1.0
#
DISCID=a30c1a0b
DTITLE=Downtown Blues Band - Bulldozer Blues
DYEAR=2020
DGENRE=Blues
TTITLE0=Blues Doctor
TTITLE1=Best Is yet to Come
TTITLE2=Blues Boys
TTITLE3=Can´t Get Enough
TTITLE4=Too Much Woman
TTITLE5=It Would Be so Easy
TTITLE6=My Wonder
TTITLE7=Carry Away
TTITLE8=Your Life
TTITLE9=Bulldozer Love
TTITLE10=Wrong Turn
EXTD=
EXTT0=
EXTT1=
EXTT2=
EXTT3=
EXTT4=
EXTT5=
EXTT6=
EXTT7=
EXTT8=
EXTT9=
EXTT10=
PLAYORDER=
